<svg width="160" height="160" viewBox="0 0 160 160" fill="none" xmlns="http://www.w3.org/2000/svg">
<rect width="160" height="160" rx="30" fill="black"/>
<path d="M88.79 47.689C89.0954 45.2704 87.7722 42.9393 85.539 41.9616C83.3058 40.984 80.6955 41.5931 79.1256 43.4581L45.7923 83.0581C44.4148 84.6946 44.111 86.9812 45.0135 88.9205C45.916 90.8598 47.861 92.1 50 92.1H73.7619L71.21 112.311C70.9046 114.73 72.2278 117.061 74.461 118.038C76.6942 119.016 79.3045 118.407 80.8744 116.542L114.208 76.9419C115.585 75.3054 115.889 73.0188 114.986 71.0795C114.084 69.1402 112.139 67.9 110 67.9H86.2381L88.79 47.689Z" fill="white" stroke="white" stroke-width="11" stroke-linecap="round" stroke-linejoin="round"/>
</svg>
